<svg xmlns="http://www.w3.org/2000/svg" viewBox="0 0 200 200" width="200" height="200">
  <!-- 椰子外壳（上半圆） -->
  <path d="M40 110 C40 30, 160 30, 160 110" fill="#795548" stroke="#4e342e" stroke-width="3"/>
  <!-- 椰子剖开面（下半圆） -->
  <path d="M40 110 C40 170, 160 170, 160 110" fill="#FFF8E1" stroke="#4e342e" stroke-width="3"/>
  <!-- 椰肉质感 -->
  <path d="M50 115 C50 160, 150 160, 150 115" fill="none" stroke="#EFEBE9" stroke-width="1.5"/>
  <!-- 椰汁 -->
  <path d="M65 120 C70 115, 80 118, 85 120 C90 118, 95 115, 100 120 C105 118, 115 115, 120 120 C125 118, 130 115, 135 120" fill="none" stroke="#FF8F00" stroke-width="2.5" stroke-linecap="round" opacity="0.7"/>
  <!-- 裂痕线 -->
  <path d="M40 110 C60 100, 80 115, 100 108 C120 115, 140 100, 160 110" fill="none" stroke="#4e342e" stroke-width="2.5" stroke-linecap="round"/>
  <!-- 小芽 -->
  <path d="M95 30 C95 15, 100 8, 100 8 C105 8, 110 15, 110 30" fill="none" stroke="#558B2F" stroke-width="3" stroke-linecap="round"/>
  <ellipse cx="95" cy="28" rx="4" ry="6" fill="#558B2F" transform="rotate(-15 95 28)"/>
  <ellipse cx="105" cy="28" rx="4" ry="6" fill="#689F38" transform="rotate(15 105 28)"/>
  <!-- 底部文字 -->
  <text x="100" y="190" font-family="'PingFang SC','Microsoft YaHei',sans-serif" font-size="22" font-weight="bold" text-anchor="middle" fill="#795548" letter-spacing="4">椰子破壳</text>
</svg>
